<svg xmlns="http://www.w3.org/2000/svg" viewBox="0 0 878.000000 556.000000" aria-hidden="true" xmlns:c2pa="http://c2pa.org/manifest"><metadata><c2pa:manifest>AAAWgmp1bWIAAAAeanVtZGMycGEAEQAQgAAAqgA4m3EDYzJwYQAAABZcanVtYgAAAEdqdW1kYzJtYQARABCAAACqADibcQN1cm46YzJwYTpjMzEzOTgwOC1mNWQyLTQxZjItODBjNS0yZGRhMGQyOTFiNjYAAAADl2p1bWIAAAApanVtZGMyYXMAEQAQgAAAqgA4m3EDYzJwYS5hc3NlcnRpb25zAAAAALxqdW1iAAAARGp1bWRjYm9yABEAEIAAAKoAOJtxE2MycGEuaW5ncmVkaWVudC52MwAAAAAYYzJzaNWymVJFugyhGbbfql5wLPkAAABwY2JvcqNpZGM6Zm9ybWF0bWltYWdlL3N2Zyt4bWxqaW5zdGFuY2VJRHgseG1wOmlpZDo2OGVmNzcwZC05YWYwLTRiYzktOTAyYS1mMjk3YWMzN2YyM2NscmVsYXRpb25zaGlwaHBhcmVudE9mAAAB4mp1bWIAAABBanVtZGNib3IAEQAQgAAAqgA4m3ETYzJwYS5hY3Rpb25zLnYyAAAAABhjMnNoRO15/M1bIVdXiptC/jjbFQAAAZljYm9yomdhY3Rpb25zgqJmYWN0aW9ua2MycGEub3BlbmVkanBhcmFtZXRlcnOha2luZ3JlZGllbnRzgaJjdXJseC1zZWxmI2p1bWJmPWMycGEuYXNzZXJ0aW9ucy9jMnBhLmluZ3JlZGllbnQudjNkaGFzaFggDilskjqZoQ3J6i8qMhHJzbWgC3lypprEOTCy5ILOvYSkZmFjdGlvbngdY29tLmFudGhyb3BpYy5jbGF1ZGUucHJvdmlkZWRqcGFyYW1ldGVyc6F4H2NvbS5hbnRocm9waWMub3JpZ2luLWNvbmZpZGVuY2VndW5rbm93bmtkZXNjcmlwdGlvbnhmQ2xhdWRlIHByb3ZpZGVkIHRoaXMgZmlsZSBhdCB0aGUgcmVxdWVzdCBvZiBhIHVzZXIgYW5kIG1heSBoYXZlIGNyZWF0ZWQgb3IgbW9kaWZpZWQgdGhlIGZpbGUgY29udGVudHMubXNvZnR3YXJlQWdlbnShZG5hbWVmQ2xhdWRlcmFsbEFjdGlvbnNJbmNsdWRlZPUAAADIanVtYgAAAEBqdW1kY2JvcgARABCAAACqADibcRNjMnBhLmhhc2guZGF0YQAAAAAYYzJzaM507p1mM1x6ZjOSTJZ7hewAAACAY2JvcqVjYWxnZnNoYTI1NmNwYWRNAAAAAAAAAAAAAAAAAGRoYXNoWCANgvEka15fmNGDwYJocMiMGKsPSAkJu9c1okic/FKd8WRuYW1lbmp1bWJmIG1hbmlmZXN0amV4Y2x1c2lvbnOBomVzdGFydBieZmxlbmd0aBkeBAAAAj5qdW1iAAAAJ2p1bWRjMmNsABEAEIAAAKoAOJtxA2MycGEuY2xhaW0udjIAAAACD2Nib3KlY2FsZ2ZzaGEyNTZpc2lnbmF0dXJleE1zZWxmI2p1bWJmPS9jMnBhL3VybjpjMnBhOmMzMTM5ODA4LWY1ZDItNDFmMi04MGM1LTJkZGEwZDI5MWI2Ni9jMnBhLnNpZ25hdHVyZWppbnN0YW5jZUlEeCx4bXA6aWlkOmIwOTYyNTdlLWFkNzItNDY2My1hODA0LTA3ZDIyOGIwMTQyNHJjcmVhdGVkX2Fzc2VydGlvbnODomN1cmx4LXNlbGYjanVtYmY9YzJwYS5hc3NlcnRpb25zL2MycGEuaW5ncmVkaWVudC52M2RoYXNoWCAOKWySOpmhDcnqLyoyEcnNtaALeXKmmsQ5MLLkgs69hKJjdXJseCpzZWxmI2p1bWJmPWMycGEuYXNzZXJ0aW9ucy9jMnBhLmFjdGlvbnMudjJkaGFzaFggPwO27Izhd7ItIusRDGJ9FRoeEhGc3fr7JBCbq21aAJ2iY3VybHgpc2VsZiNqdW1iZj1jMnBhLmFzc2VydGlvbnMvYzJwYS5oYXNoLmRhdGFkaGFzaFggHxPQj+TB+q8tg/zCcATzd5Tdn93di4+8xh9ZNvzPfy10Y2xhaW1fZ2VuZXJhdG9yX2luZm+jZG5hbWVvQW50aHJvcGljIEZpbGVzZ3ZlcnNpb25lMS4wLjBrc3BlY1ZlcnNpb25lMi40LjAAABA4anVtYgAAAChqdW1kYzJjcwARABCAAACqADibcQNjMnBhLnNpZ25hdHVyZQAAABAIY2JvctKEWQISogEmGCFZAgowggIGMIIBjaADAgECAhRA5aAK7sI50L64g/oGQgU9Z1UTADAKBggqhkjOPQQDAzBJMRcwFQYDVQQKEw5BbnRocm9waWMsIFBCQzEuMCwGA1UEAxMlQW50aHJvcGljIENvbnRlbnQgQ3JlZGVudGlhbHMgUm9vdCBDQTAeFw0yNjA4MDcxODQzNTZaFw0yODA4MDYxOTQzNTZaMEQxFzAVBgNVBAoTDkFudGhyb3BpYywgUEJDMSkwJwYDVQQDEyBBbnRocm9waWMgQ2xhdWRlIENvbnRlbnQgU2lnbmluZzBZMBMGByqGSM49AgEGCCqGSM49AwEHA0IABJh6CmvLUBgFFNU0vUKlOVtE6djd17L5SuwX0LemFisBM3dkd/3cyjxFA3Qo5S46fX0/ihY0VZ7mfb9KF703t5OjWDBWMA4GA1UdDwEB/wQEAwIHgDAVBgNVHSUEDjAMBgorBgEEAYPoXgIBMAwGA1UdEwEB/wQCMAAwHwYDVR0jBBgwFoAUzlHiBIFOZFsj+OPEz5o+nMHXXMIwCgYIKoZIzj0EAwMDZwAwZAIwMXMdFJ4BetLLVY7ORuE9noqbbAZOZn/aArXyTwFAZfKrPzxF2vPoJNf1+UCdg1XGAjBwX1zd9WGqYkqmL5SFqw1QySjr1zJfpJM9+1rdDwSPLMOPOjKuiXjoU/pUUeG9RwmhY3BhZFkNngAAAAAAAAAAAAAAAAAAAAAAAAAAAAAAAAAAAAAAAAAAAAAAAAAAAAAAAAAAAAAAAAAAAAAAAAAAAAAAAAAAAAAAAAAAAAAAAAAAAAAAAAAAAAAAAAAAAAAAAAAAAAAAAAAAAAAAAAAAAAAAAAAAAAAAAAAAAAAAAAAAAAAAAAAAAAAAAAAAAAAAAAAAAAAAAAAAAAAAAAAAAAAAAAAAAAAAAAAAAAAAAAAAAAAAAAAAAAAAAAAAAAAAAAAAAAAAAAAAAAAAAAAAAAAAAAAAAAAAAAAAAAAAAAAAAAAAAAAAAAAAAAAAAAAAAAAAAAAAAAAAAAAAAAAAAAAAAAAAAAAAAAAAAAAAAAAAAAAAAAAAAAAAAAAAAAAAAAAAAAAAAAAAAAAAAAAAAAAAAAAAAAAAAAAAAAAAAAAAAAAAAAAAAAAAAAAAAAAAAAAAAAAAAAAAAAAAAAAAAAAAAAAAAAAAAAAAAAAAAAAAAAAAAAAAAAAAAAAAAAAAAAAAAAAAAAAAAAAAAAAAAAAAAAAAAAAAAAAAAAAAAAAAAAAAAAAAAAAAAAAAAAAAAAAAAAAAAAAAAAAAAAAAAAAAAAAAAAAAAAAAAAAAAAAAAAAAAAAAAAAAAAAAAAAAAAAAAAAAAAAAAAAAAAAAAAAAAAAAAAAAAAAAAAAAAAAAAAAAAAAAAAAAAAAAAAAAAAAAAAAAAAAAAAAAAAAAAAAAAAAAAAAAAAAAAAAAAAAAAAAAAAAAAAAAAAAAAAAAAAAAAAAAAAAAAAAAAAAAAAAAAAAAAAAAAAAAAAAAAAAAAAAAAAAAAAAAAAAAAAAAAAAAAAAAAAAAAAAAAAAAAAAAAAAAAAAAAAAAAAAAAAAAAAAAAAAAAAAAAAAAAAAAAAAAAAAAAAAAAAAAAAAAAAAAAAAAAAAAAAAAAAAAAAAAAAAAAAAAAAAAAAAAAAAAAAAAAAAAAAAAAAAAAAAAAAAAAAAAAAAAAAAAAAAAAAAAAAAAAAAAAAAAAAAAAAAAAAAAAAAAAAAAAAAAAAAAAAAAAAAAAAAAAAAAAAAAAAAAAAAAAAAAAAAAAAAAAAAAAAAAAAAAAAAAAAAAAAAAAAAAAAAAAAAAAAAAAAAAAAAAAAAAAAAAAAAAAAAAAAAAAAAAAAAAAAAAAAAAAAAAAAAAAAAAAAAAAAAAAAAAAAAAAAAAAAAAAAAAAAAAAAAAAAAAAAAAAAAAAAAAAAAAAAAAAAAAAAAAAAAAAAAAAAAAAAAAAAAAAAAAAAAAAAAAAAAAAAAAAAAAAAAAAAAAAAAAAAAAAAAAAAAAAAAAAAAAAAAAAAAAAAAAAAAAAAAAAAAAAAAAAAAAAAAAAAAAAAAAAAAAAAAAAAAAAAAAAAAAAAAAAAAAAAAAAAAAAAAAAAAAAAAAAAAAAAAAAAAAAAAAAAAAAAAAAAAAAAAAAAAAAAAAAAAAAAAAAAAAAAAAAAAAAAAAAAAAAAAAAAAAAAAAAAAAAAAAAAAAAAAAAAAAAAAAAAAAAAAAAAAAAAAAAAAAAAAAAAAAAAAAAAAAAAAAAAAAAAAAAAAAAAAAAAAAAAAAAAAAAAAAAAAAAAAAAAAAAAAAAAAAAAAAAAAAAAAAAAAAAAAAAAAAAAAAAAAAAAAAAAAAAAAAAAAAAAAAAAAAAAAAAAAAAAAAAAAAAAAAAAAAAAAAAAAAAAAAAAAAAAAAAAAAAAAAAAAAAAAAAAAAAAAAAAAAAAAAAAAAAAAAAAAAAAAAAAAAAAAAAAAAAAAAAAAAAAAAAAAAAAAAAAAAAAAAAAAAAAAAAAAAAAAAAAAAAAAAAAAAAAAAAAAAAAAAAAAAAAAAAAAAAAAAAAAAAAAAAAAAAAAAAAAAAAAAAAAAAAAAAAAAAAAAAAAAAAAAAAAAAAAAAAAAAAAAAAAAAAAAAAAAAAAAAAAAAAAAAAAAAAAAAAAAAAAAAAAAAAAAAAAAAAAAAAAAAAAAAAAAAAAAAAAAAAAAAAAAAAAAAAAAAAAAAAAAAAAAAAAAAAAAAAAAAAAAAAAAAAAAAAAAAAAAAAAAAAAAAAAAAAAAAAAAAAAAAAAAAAAAAAAAAAAAAAAAAAAAAAAAAAAAAAAAAAAAAAAAAAAAAAAAAAAAAAAAAAAAAAAAAAAAAAAAAAAAAAAAAAAAAAAAAAAAAAAAAAAAAAAAAAAAAAAAAAAAAAAAAAAAAAAAAAAAAAAAAAAAAAAAAAAAAAAAAAAAAAAAAAAAAAAAAAAAAAAAAAAAAAAAAAAAAAAAAAAAAAAAAAAAAAAAAAAAAAAAAAAAAAAAAAAAAAAAAAAAAAAAAAAAAAAAAAAAAAAAAAAAAAAAAAAAAAAAAAAAAAAAAAAAAAAAAAAAAAAAAAAAAAAAAAAAAAAAAAAAAAAAAAAAAAAAAAAAAAAAAAAAAAAAAAAAAAAAAAAAAAAAAAAAAAAAAAAAAAAAAAAAAAAAAAAAAAAAAAAAAAAAAAAAAAAAAAAAAAAAAAAAAAAAAAAAAAAAAAAAAAAAAAAAAAAAAAAAAAAAAAAAAAAAAAAAAAAAAAAAAAAAAAAAAAAAAAAAAAAAAAAAAAAAAAAAAAAAAAAAAAAAAAAAAAAAAAAAAAAAAAAAAAAAAAAAAAAAAAAAAAAAAAAAAAAAAAAAAAAAAAAAAAAAAAAAAAAAAAAAAAAAAAAAAAAAAAAAAAAAAAAAAAAAAAAAAAAAAAAAAAAAAAAAAAAAAAAAAAAAAAAAAAAAAAAAAAAAAAAAAAAAAAAAAAAAAAAAAAAAAAAAAAAAAAAAAAAAAAAAAAAAAAAAAAAAAAAAAAAAAAAAAAAAAAAAAAAAAAAAAAAAAAAAAAAAAAAAAAAAAAAAAAAAAAAAAAAAAAAAAAAAAAAAAAAAAAAAAAAAAAAAAAAAAAAAAAAAAAAAAAAAAAAAAAAAAAAAAAAAAAAAAAAAAAAAAAAAAAAAAAAAAAAAAAAAAAAAAAAAAAAAAAAAAAAAAAAAAAAAAAAAAAAAAAAAAAAAAAAAAAAAAAAAAAAAAAAAAAAAAAAAAAAAAAAAAAAAAAAAAAAAAAAAAAAAAAAAAAAAAAAAAAAAAAAAAAAAAAAAAAAAAAAAAAAAAAAAAAAAAAAAAAAAAAAAAAAAAAAAAAAAAAAAAAAAAAAAAAAAAAAAAAAAAAAAAAAAAAAAAAAAAAAAAAAAAAAAAAAAAAAAAAAAAAAAAAAAAAAAAAAAAAAAAAAAAAAAAAAAAAAAAAAAAAAAAAAAAAAAAAAAAAAAAAAAAAAAAAAAAAAAAAAAAAAAAAAAAAAAAAAAAAAAAAAAAAAAAAAAAAAAAAAAAAAAAAAAAAAAAAAAAAAAAAAAAAAAAAAAAAAAAAAAAAAAAAAAAAAAAAAAAAAAAAAAAAAAAAAAAAAAAAAAAAAAAAAAAAAAAAAAAAAAAAAAAAAAAAAAAAAAAAAAAAAAAAAAAAAAAAAAAAAAAAAAAAAAAAAAAAAAAAAAAAAAAAAAAAAAAAAAAAAAAAAAAAAAAAAAAAAAAAAAAAAAAAAAAAAAAAAAAAAAAAAAAAAAAAAAAAAAAAAAAAAAAAAAAAAAAAAAAAAAAAAAAAAAAAAAAAAAAAAAAAAAAAAAAAAAAAAAAAAAAAAAAAAAAAAAAAAAAAAAAAAAAAAAAAAAAAAAAAAAAAAAAAAAAAAAAAAAAAAAAAAAAAAAAAAAAAAAAAAAAAAAAAAAAAAAAAAAAAAAAAAAAAAAAAAAAAAAAAAAAAAAAAAAAAAAAAAAAAAAAAAAAAAAAAAAAAAAAAAAAAAAAAAAAAAAAAAAAAAAAAAAAAAAAAAAAAAAAAAAAAAAAAAAAAAAAAAAAAAAAAAAAAAAAAAAAAAAAAAAAAAAAAAAAAAAAAAAAAAAAAAAAAAAAAAAAAAAAAAAAAAAAAAAAAAAAAAAAAAAAAAAAAAAAAAAAAAAAAAAAAAAAAAAAAAAAAAAAAAAAAAAAAAAAAAAAAAAAAAAAAAAAAAAAAAAAAAAAAAAAAAAAAAAAAAAAAAAAAAAAAAAAAAAAAAAAAAAAAAAAAAAAAAAAAAAAAAAAAAAAAAAAAAAAAAAAAAAAAAAAAAAAAAAAAAAAAAAAAAAAAAAAAAAAAAAAAAAAAAAAAAAAAAAAAAAAAAAAAAAAAAAAAAAAAAAAAAAAAAAAAAAAAAAAAAAAAAAAAAAAAAAAAAAAAAAAAAAAAAAAAAAAAAAAAAAAAAAAAAAAAAAAAAAAAAAAAAAAAAAAAAAAAAAAAAAAAAAAAAAAAAAAAAAAAAAAAAAAAAAAAAAAAAAAAAAAAAAAAAAAAAAAAAAAAAAAAAAAAAAAAAAAAAAAAAAAAAAAAAAAAAAAAAAAAAAAAAAAAAAAAAAAAAAAAAAAAAAAAAAAAAAAAAAAAAAAAAAAAAAAAAAAAAAAAAAAAAAAAAAAAAAAAAAAAAAAAAAAAAAAAAAAAAAAAAAAAAAAAAAAAAAAAAAAAAAAAAAAAAAAAAAAAAAAAAAAAAAAAAAAAAAAAAAAAAAAAAAAAAAAAAAAAAAAAAAAAAAAAAAAAAAAAAAAAAAAAAAAAAAAAAAAAAAAAAAAAAAAAAAAAAAAAAAAAAAAAAAAAAAAAAAAAAAAAAAAAAAAAAAAAAAAAAAAAAAAAAAAAAAAAAAAAAAAPZYQH9SLj6nI67KxkMjhDGgtyRCF8AxitshSzK2HemHZd3Ob61LugfVrJUYGGK9HrrphokZqcytLgNSBx+dgLosR3M=</c2pa:manifest></metadata><g transform="translate(0.000000,556.000000) scale(0.100000,-0.100000)" fill="var(--gold)"> <path d="M2695 5515 c-44 -24 -116 -62 -160 -85 -44 -23 -98 -52 -120 -66 -22 -13 -53 -30 -70 -39 -44 -23 -128 -75 -200 -125 -12 -8 -35 -24 -51 -35 -16 -11 -71 -51 -123 -90 -52 -38 -108 -80 -125 -91 -61 -42 -343 -293 -426 -380 -354 -371 -456 -499 -687 -868 -133 -213 -329 -590 -358 -686 -4 -14 -11 -29 -15 -35 -11 -15 -126 -358 -149 -445 -134 -507 -166 -1088 -90 -1615 11 -77 24 -156 29 -175 5 -19 16 -69 25 -110 19 -94 57 -233 78 -283 16 -37 30 -44 56 -28 15 10 5 93 -29 231 -24 98 -65 349 -86 520 -21 179 -15 706 10 880 20 137 60 341 82 425 91 337 190 612 302 840 11 22 31 65 45 95 14 30 43 85 64 122 102 180 159 277 185 313 16 22 36 51 46 65 53 78 292 397 313 419 8 9 58 63 110 121 253 282 594 582 886 777 132 89 174 115 303 188 10 6 24 16 31 22 25 20 288 153 302 153 8 0 20 7 27 15 11 13 4 15 -56 14 -62 -1 -78 -6 -149 -44z M7865 4427 c-185 -69 -348 -208 -484 -413 -88 -131 -291 -524 -325 -628 -16 -48 -16 -51 9 -116 41 -106 176 -253 219 -237 9 4 23 39 67 177 9 29 32 121 49 200 37 170 69 266 138 420 16 36 33 76 37 90 6 21 61 131 114 229 29 54 103 141 181 213 44 41 80 78 80 81 0 11 -22 7 -85 -16z M6415 3115 c-209 -54 -303 -322 -176 -504 47 -69 110 -113 201 -141 64 -20 77 -21 135 -10 75 14 135 1 135 -29 0 -37 -64 -197 -150 -377 -32 -66 -74 -163 -95 -215 -20 -52 -48 -121 -61 -154 l-25 -61 33 -35 c18 -20 47 -69 63 -110 28 -68 30 -84 30 -194 l0 -120 -43 -80 c-31 -58 -70 -109 -145 -187 -99 -103 -303 -267 -404 -324 -27 -15 -90 -51 -141 -81 -115 -67 -167 -91 -307 -137 -61 -20 -119 -41 -130 -46 -64 -28 -267 -78 -526 -130 -19 -3 -41 -10 -47 -14 -7 -4 -49 -13 -95 -21 -45 -7 -94 -17 -109 -20 -49 -12 -33 18 25 48 53 27 225 97 239 97 15 0 108 44 108 51 0 3 -15 6 -32 5 -18 0 -159 3 -313 8 -154 5 -296 9 -315 10 -26 0 -34 -3 -31 -14 2 -8 7 -40 12 -70 4 -30 18 -101 31 -157 l22 -103 1613 0 c887 0 1613 4 1613 8 0 5 -25 26 -55 46 -68 48 -285 270 -387 399 -159 199 -226 284 -280 357 -31 41 -84 107 -118 145 -82 92 -120 148 -120 177 0 27 20 66 72 142 58 83 140 251 172 351 16 50 40 123 53 163 13 41 46 120 73 176 27 57 63 147 81 202 36 114 52 149 73 157 8 3 54 -14 103 -39 48 -24 101 -44 117 -44 43 0 133 48 165 87 42 51 57 112 42 175 -23 102 -81 148 -210 168 -58 9 -90 19 -104 33 -16 16 -37 21 -101 25 -45 2 -92 10 -106 17 -31 16 -72 59 -113 118 -105 152 -121 170 -179 208 -33 21 -74 41 -92 43 -71 11 -158 11 -201 1z m-5 -2511 c47 -47 123 -118 170 -157 47 -39 120 -103 164 -142 43 -38 110 -92 149 -120 69 -49 97 -78 86 -90 -4 -3 -19 0 -35 6 -16 6 -56 15 -89 19 -33 5 -103 16 -155 25 -173 29 -363 55 -550 75 -52 5 -140 14 -195 20 -55 6 -121 11 -147 11 -27 1 -48 5 -48 10 0 15 37 47 82 70 94 48 180 114 358 273 52 47 102 85 110 85 9 1 54 -38 100 -85z M5030 1754 c-113 -30 -172 -102 -178 -217 -6 -91 15 -143 78 -200 39 -35 62 -47 121 -61 69 -17 78 -17 142 -2 79 18 271 22 314 5 15 -6 48 -14 73 -19 110 -20 205 -78 315 -189 33 -34 62 -61 66 -61 4 0 21 33 38 74 40 97 42 160 4 217 -24 37 -131 131 -211 188 -65 45 -248 138 -372 188 -36 15 -44 17 -190 53 -47 11 -93 25 -102 30 -22 13 -31 12 -98 -6z M3485 338 c-181 -4 -402 -15 -490 -23 -88 -8 -194 -15 -235 -15 -41 -1 -122 -7 -180 -15 -58 -8 -131 -15 -162 -15 -32 0 -104 -6 -160 -14 -57 -8 -152 -19 -213 -26 -208 -22 -401 -48 -520 -70 -27 -5 -90 -16 -140 -25 -133 -24 -168 -32 -188 -40 -12 -5 -17 -2 -17 9 0 9 -2 16 -4 16 -2 0 -35 -18 -74 -40 -38 -22 -83 -45 -100 -51 -18 -6 -32 -15 -32 -20 0 -5 643 -9 1570 -9 864 0 1570 2 1570 4 0 2 -23 21 -51 42 -63 46 -94 94 -133 209 l-31 89 -40 1 c-22 1 -188 -2 -370 -7z"/> </g><g transform="translate(0.000000,556.000000) scale(0.100000,-0.100000)" fill="currentColor"> <path d="M4635 5021 c-87 -18 -175 -88 -225 -183 -32 -59 -34 -69 -34 -163 0 -91 2 -105 28 -152 34 -61 107 -138 156 -163 64 -32 160 -45 229 -30 106 22 215 113 261 218 32 71 28 195 -8 275 -32 70 -110 148 -179 179 -47 21 -168 31 -228 19z M6910 4521 c-99 -36 -171 -99 -211 -186 -33 -72 -34 -209 -1 -279 34 -75 84 -129 154 -166 60 -33 68 -35 163 -35 91 0 105 3 158 30 67 34 140 108 170 175 29 63 29 206 -1 271 -71 161 -271 249 -432 190z M4285 4241 c-33 -5 -76 -14 -95 -22 -60 -24 -210 -118 -297 -186 -149 -117 -382 -406 -470 -583 -18 -36 -54 -110 -81 -165 -95 -194 -205 -411 -247 -485 -23 -41 -64 -115 -90 -165 -27 -49 -60 -108 -74 -130 -14 -22 -32 -51 -41 -65 -52 -86 -85 -137 -163 -254 -48 -72 -110 -162 -138 -201 -28 -38 -106 -153 -175 -255 -119 -177 -189 -271 -264 -357 -41 -46 -54 -62 -140 -168 -138 -172 -440 -514 -550 -624 -77 -78 -240 -226 -400 -364 -74 -64 -160 -138 -190 -166 l-55 -50 73 -1 c40 0 78 4 85 10 7 5 46 27 88 49 42 21 96 53 120 71 24 18 114 73 199 123 151 88 328 210 440 303 30 25 75 59 100 77 25 17 89 67 144 112 54 44 114 92 134 107 19 15 54 45 76 65 23 21 88 79 146 129 198 172 379 372 477 529 17 28 56 102 87 165 73 154 110 210 137 210 67 0 443 -240 605 -385 42 -38 94 -91 115 -118 68 -86 69 -95 68 -649 -1 -484 -1 -494 21 -558 33 -96 66 -145 130 -195 l58 -45 91 0 c106 0 100 -9 70 120 -11 47 -24 111 -29 144 -4 32 -13 63 -19 69 -14 14 -15 387 -2 431 8 27 14 54 37 166 2 14 9 50 15 80 6 30 16 80 24 110 27 111 35 179 35 291 l0 114 -45 76 c-68 117 -100 142 -526 421 -80 53 -167 117 -193 144 -73 73 -166 278 -166 367 0 15 7 46 16 69 61 164 103 232 328 528 228 299 326 410 456 513 119 94 152 107 265 107 88 0 104 -3 183 -36 48 -20 146 -75 217 -122 72 -48 176 -109 230 -136 124 -61 118 -58 245 -100 134 -43 239 -53 341 -32 86 18 109 20 109 6 0 -5 -100 -112 -223 -237 -123 -125 -242 -253 -265 -283 -23 -30 -62 -80 -87 -110 -111 -134 -252 -334 -294 -419 -34 -67 -58 -152 -56 -197 5 -72 44 -160 95 -212 25 -26 60 -54 76 -62 16 -8 43 -24 59 -36 17 -12 71 -31 120 -43 148 -36 159 -39 195 -54 124 -50 307 -143 372 -188 80 -57 187 -151 211 -188 39 -59 37 -121 -10 -230 -41 -98 -81 -156 -150 -222 -109 -103 -227 -181 -420 -277 -78 -39 -160 -82 -182 -96 -22 -14 -43 -26 -47 -26 -3 0 -50 -26 -103 -58 -53 -31 -121 -66 -151 -77 -30 -10 -66 -25 -80 -32 -14 -7 -30 -13 -35 -13 -17 0 -184 -68 -242 -97 -58 -30 -74 -60 -25 -48 15 3 64 13 109 20 46 8 88 17 95 21 6 4 28 11 47 14 259 52 462 102 526 130 11 5 69 26 130 46 140 46 192 70 307 137 51 30 114 66 141 81 101 57 305 221 404 324 75 78 114 129 145 187 l43 80 0 120 c0 110 -2 126 -30 194 -31 77 -47 96 -153 187 -59 49 -130 90 -446 253 -130 67 -207 136 -250 226 -56 117 -45 181 52 318 60 83 164 192 467 488 311 303 353 338 446 376 39 15 44 15 73 -1 30 -16 51 -48 89 -136 9 -19 40 -91 70 -160 30 -69 58 -137 61 -151 7 -31 79 -115 115 -133 29 -16 163 -21 225 -10 50 8 131 -10 221 -52 125 -57 238 -165 275 -261 10 -26 22 -47 26 -46 17 5 26 175 14 260 -20 139 -85 228 -225 308 -65 37 -89 45 -130 45 -38 0 -68 10 -125 38 -92 47 -178 142 -211 233 -12 32 -28 64 -35 70 -8 6 -21 37 -30 68 -39 137 -73 224 -122 308 -77 132 -122 168 -249 198 -60 14 -80 15 -130 5 -110 -23 -118 -29 -429 -332 -56 -54 -106 -98 -112 -98 -8 0 -9 11 -5 32 5 28 4 31 -13 24 -28 -11 -131 -43 -195 -60 -86 -24 -140 -20 -253 20 -141 50 -175 67 -263 135 -75 58 -253 240 -356 364 -67 82 -128 131 -206 166 -103 47 -104 47 -145 64 -48 19 -159 26 -241 16z"/> </g></svg>